<?xml version="1.0" encoding="UTF-8"?>
<svg width="960" height="560" viewBox="0 0 960 560" fill="none" xmlns="http://www.w3.org/2000/svg">
  <rect width="960" height="560" rx="28" fill="#FBF9F4"/>
  <rect x="48" y="64" width="864" height="1" fill="#E4DDD3"/>
  <text x="48" y="44" fill="#6B6258" font-family="IBM Plex Sans, Arial, sans-serif" font-size="14" letter-spacing="2">RESULTADOS</text>
  <text x="48" y="96" fill="#1D1A16" font-family="Fraunces, Times New Roman, serif" font-size="28">Separación de veracidad</text>
  <text x="48" y="126" fill="#6B6258" font-family="IBM Plex Sans, Arial, sans-serif" font-size="13">Distribuciones de puntaje máximo por categoría</text>
  <rect x="140" y="160" width="760" height="300" rx="16" fill="#FFFFFF" stroke="#E4DDD3"/>
  <text x="120" y="215" text-anchor="end" font-family="IBM Plex Sans, Arial, sans-serif" font-size="13" fill="#1D1A16">TruthfulQA (Control)</text>
<text x="120" y="315" text-anchor="end" font-family="IBM Plex Sans, Arial, sans-serif" font-size="13" fill="#1D1A16">TruthfulQA (Misconceptions)</text>
<text x="120" y="415" text-anchor="end" font-family="IBM Plex Sans, Arial, sans-serif" font-size="13" fill="#1D1A16">TruthfulQA (Factual Lies)</text>
  
      <line x1="140" y1="210" x2="535.4599314934258" y2="210" stroke="#2D4B3A" stroke-width="2" />
      <rect x="232.93714372889082" y="196" width="135.81871135005161" height="28" rx="6" fill="#2D4B3A" opacity="0.2" />
      <line x1="282.36518154803844" y1="194" x2="282.36518154803844" y2="226" stroke="#2D4B3A" stroke-width="2" />
    

      <line x1="327.5713627948018" y1="310" x2="760.5836937962357" y2="310" stroke="#2D4B3A" stroke-width="2" />
      <rect x="423.59455535455163" y="296" width="105.79838234786325" height="28" rx="6" fill="#2D4B3A" opacity="0.2" />
      <line x1="467.5012408020999" y1="294" x2="467.5012408020999" y2="326" stroke="#2D4B3A" stroke-width="2" />
    

      <line x1="173.13165288752464" y1="410" x2="900" y2="410" stroke="#2D4B3A" stroke-width="2" />
      <rect x="349.1887958079524" y="396" width="247.69147386197835" height="28" rx="6" fill="#2D4B3A" opacity="0.2" />
      <line x1="417.5702311836822" y1="394" x2="417.5702311836822" y2="426" stroke="#2D4B3A" stroke-width="2" />
    
  <text x="48" y="500" fill="#6B6258" font-family="IBM Plex Sans, Arial, sans-serif" font-size="12">Caja intercuartílica y mediana por categoría con rango total de puntuaciones.</text>
</svg>