<svg width="960" height="560" viewBox="0 0 960 560" fill="none" xmlns="http://www.w3.org/2000/svg">
  <rect width="960" height="560" rx="28" fill="#FBF9F4"/>
  <rect x="48" y="64" width="864" height="1" fill="#E4DDD3"/>
  <text x="48" y="44" fill="#6B6258" font-family="IBM Plex Sans, Arial, sans-serif" font-size="14" letter-spacing="2">SUPERFICIES SL5</text>
  <text x="48" y="96" fill="#1D1A16" font-family="Fraunces, Times New Roman, serif" font-size="28">Mapa de dominios de seguridad</text>

  <g font-family="IBM Plex Sans, Arial, sans-serif" font-size="14" fill="#1D1A16">
    <text x="80" y="164">Cadena de suministro</text>
    <text x="80" y="224">Red</text>
    <text x="80" y="284">Máquinas</text>
    <text x="80" y="344">Físico</text>
    <text x="80" y="404">Personal y agentes</text>
  </g>

  <g fill="#E4DDD3">
    <rect x="260" y="140" width="600" height="16" rx="8"/>
    <rect x="260" y="200" width="600" height="16" rx="8"/>
    <rect x="260" y="260" width="600" height="16" rx="8"/>
    <rect x="260" y="320" width="600" height="16" rx="8"/>
    <rect x="260" y="380" width="600" height="16" rx="8"/>
  </g>

  <g fill="#2D4B3A">
    <rect x="260" y="140" width="410" height="16" rx="8"/>
    <rect x="260" y="200" width="360" height="16" rx="8"/>
    <rect x="260" y="260" width="440" height="16" rx="8"/>
    <rect x="260" y="320" width="320" height="16" rx="8"/>
    <rect x="260" y="380" width="520" height="16" rx="8"/>
  </g>

  <text x="48" y="486" fill="#6B6258" font-family="IBM Plex Sans, Arial, sans-serif" font-size="12">
    Intensidad relativa de controles esperados bajo SL5 por dominio de seguridad.
  </text>
</svg>
