<svg width="960" height="560" viewBox="0 0 960 560" fill="none" xmlns="http://www.w3.org/2000/svg">
  <rect width="960" height="560" rx="28" fill="#FBF9F4"/>
  <rect x="48" y="64" width="864" height="1" fill="#E4DDD3"/>
  <text x="48" y="44" fill="#6B6258" font-family="IBM Plex Sans, Arial, sans-serif" font-size="14" letter-spacing="2">COMPUESTO</text>
  <text x="48" y="96" fill="#1D1A16" font-family="Fraunces, Times New Roman, serif" font-size="28">Compuerta por vectores conceptuales</text>

  <g font-family="IBM Plex Sans, Arial, sans-serif" font-size="14" fill="#1D1A16">
    <text x="80" y="190">Veracidad</text>
    <text x="80" y="250">Ciber-uso indebido</text>
    <text x="80" y="310">Bio-defensa</text>
    <text x="80" y="370">Peso agregado</text>
  </g>

  <g fill="#E4DDD3">
    <rect x="300" y="170" width="520" height="18" rx="9"/>
    <rect x="300" y="230" width="520" height="18" rx="9"/>
    <rect x="300" y="290" width="520" height="18" rx="9"/>
    <rect x="300" y="350" width="520" height="18" rx="9"/>
  </g>

  <g fill="#2D4B3A">
    <rect x="300" y="170" width="360" height="18" rx="9"/>
    <rect x="300" y="230" width="280" height="18" rx="9"/>
    <rect x="300" y="290" width="320" height="18" rx="9"/>
  </g>

  <g fill="#9B3D3D">
    <rect x="300" y="350" width="410" height="18" rx="9"/>
  </g>

  <text x="48" y="480" fill="#6B6258" font-family="IBM Plex Sans, Arial, sans-serif" font-size="12">
    La decisión de compuerta se calcula con pesos diferenciados por categoría conceptual.
  </text>
</svg>
